<svg width="80" height="80" fill="none" xmlns="http://www.w3.org/2000/svg"><path d="M47 63.1v2.6c0 2.4-2 4.4-4.4 4.4H4.4c-2.4 0-4.4-2-4.4-4.4V27.5c0-2.4 2-4.4 4.4-4.4H7v34.1c0 3.3 2.7 5.9 5.9 5.9H47Z" fill="#FFDB00"/><path d="M54 42.1v15.1c0 1.6-1.3 2.9-2.9 2.9H12.9c-1.6 0-2.9-1.3-2.9-2.9V19c0-1.6 1.3-2.9 2.9-2.9h17.6c-1.1 2.1-1.8 4.5-2 7 0 .5-.1 1.1-.1 1.6 0 10.3 8.3 18.6 18.5 18.7h.2c2.5 0 4.8-.4 6.9-1.3Z" fill="#111"/><path d="M62.8 24.7c0 4.9-2.3 9.3-5.9 12.2-.5.4-1 .8-1.5 1.1-.5.3-1 .6-1.5.8-2.1 1-4.4 1.6-6.8 1.6H47c-8.6-.1-15.5-7.1-15.5-15.7 0-.5 0-1.1.1-1.6.3-2.6 1.1-5 2.5-7 .4-.5.7-1 1.1-1.5.4-.5.9-1 1.4-1.5C39.4 10.6 43.1 9 47.2 9c8.6 0 15.6 7.1 15.6 15.7Z" fill="#111"/></svg>