<svg width="80" height="80" fill="none" xmlns="http://www.w3.org/2000/svg"><g clip-path="url('#clip0_168_768')"><path d="M72.15 19.019a95.773 95.773 0 0 1-4.577-5.987.1.1 0 0 0-.145 0 95.773 95.773 0 0 1-4.578 5.987c-19.288 24.81 3.038 41.553 3.038 41.553l.187.126c.166 2.584.583 6.302.583 6.302h1.664s.416-3.697.583-6.302l.187-.147c.02 0 22.347-16.722 3.059-41.532Zm-4.66 41.175s-.999-.862-1.27-1.303v-.042l1.207-27.016c0-.084.125-.084.125 0L68.76 58.85v.042c-.27.441-1.27 1.303-1.27 1.303Z" fill="#111"/><mask id="mask0_168_768" style="mask-type:luminance" maskUnits="userSpaceOnUse" x="0" y="0" width="44" height="50"><path d="M0 0h43.902v50H0V0Z" fill="#fff"/></mask><g mask="url('#mask0_168_768')"><path d="M21.951 49.904a3.94 3.94 0 0 1-1.909-.505l-6.045-3.623c-.91-.505-.454-.688-.182-.78 1.228-.414 1.454-.505 2.727-1.24.137-.09.319-.044.454.047l4.636 2.798c.181.092.41.092.545 0L40.31 36.01c.181-.092.273-.275.273-.505V14.37c0-.23-.092-.414-.273-.505L22.178 3.32c-.181-.092-.409-.092-.544 0L3.5 13.867c-.182.092-.273.323-.273.506V35.51c0 .183.09.413.272.504l4.955 2.89c2.682 1.376 4.363-.23 4.363-1.834V16.205c0-.274.228-.55.545-.55h2.319c.273 0 .546.23.546.55v20.861c0 3.624-1.956 5.732-5.363 5.732-1.046 0-1.865 0-4.181-1.146L1.91 38.9A3.872 3.872 0 0 1 0 35.554V14.418c0-1.375.726-2.66 1.909-3.348L20.042.48c1.137-.642 2.682-.642 3.818 0L41.993 11.07a3.878 3.878 0 0 1 1.909 3.348v21.137a3.878 3.878 0 0 1-1.909 3.347L23.86 49.494c-.6.27-1.25.41-1.909.41Zm5.59-14.533c-7.953 0-9.59-3.668-9.59-6.786 0-.274.229-.55.546-.55h2.363c.273 0 .5.184.5.459.364 2.431 1.41 3.623 6.228 3.623 3.817 0 5.453-.872 5.453-2.935 0-1.191-.454-2.063-6.408-2.658-4.954-.506-8.045-1.606-8.045-5.594 0-3.714 3.09-5.915 8.271-5.915 5.817 0 8.681 2.017 9.044 6.418a.747.747 0 0 1-.137.414c-.09.091-.228.183-.363.183H33.04a.534.534 0 0 1-.501-.413c-.546-2.523-1.955-3.348-5.681-3.348-4.182 0-4.683 1.467-4.683 2.568 0 1.33.592 1.741 6.227 2.476 5.591.733 8.227 1.788 8.227 5.731-.044 4.033-3.316 6.327-9.088 6.327Z" fill="#111"/></g><path d="M49.837 56.6h-.51c-.63 0-1.224.294-1.608.794l-5.22 6.827-5.22-6.827a2.023 2.023 0 0 0-1.606-.794h-.51l6.582 8.608L35.022 74h.51c.63 0 1.224-.294 1.607-.794l5.361-7.01 5.361 7.01c.383.5.977.794 1.607.794h.51l-6.723-8.792 6.582-8.608ZM32.773 70.545c-1.532 2.329-4.549 3.522-7.433 2.47-2.537-.926-4.14-3.448-4.14-6.15V66.2H35v-2.48c0-3.903-2.89-7.32-6.777-7.686C23.763 55.614 20 59.126 20 63.5v3.344c0 3.222 1.929 6.218 4.961 7.31 3.962 1.425 8.13-.702 9.538-4.354h-.383c-.546 0-1.043.289-1.343.745ZM21.2 63.5c0-3.474 2.826-6.3 6.3-6.3 3.474 0 6.3 2.826 6.3 6.3V65H21.2v-1.5Z" fill="#111"/></g><defs><clipPath id="clip0_168_768"><path fill="#fff" d="M0 0h80v80H0z"/></clipPath></defs></svg>