<svg width="80" height="80" fill="none" xmlns="http://www.w3.org/2000/svg"><path d="M31.6 63.2v1c0 3.3-2.7 6-6 6H6c-3.3 0-6-2.7-6-6V22.1c0-3.3 2.7-6 6-6h1v39.6c0 4.1 3.4 7.5 7.5 7.5h17.1Z" fill="#FFDB00"/><path d="M30.1 10.4c0 .8-.6 1.4-1.4 1.4h-8.8c-.8 0-1.4-.6-1.4-1.4 0-.6.4-1.1.9-1.3.1-.1.3-.1.5-.1h8.8c.2 0 .3 0 .5.1.5.2.9.7.9 1.3Z" fill="#111"/><path d="M38.6 13.6v42.1c0 2.5-2 4.5-4.5 4.5H14.5c-2.5 0-4.5-2-4.5-4.5V13.6c0-2.5 2-4.5 4.5-4.5h2.3c-.2.4-.3.8-.3 1.3 0 1.9 1.5 3.4 3.4 3.4h8.8c1.9 0 3.4-1.5 3.4-3.4 0-.5-.1-.9-.3-1.3h2.3c2.5 0 4.5 2 4.5 4.5Z" fill="#111"/><path d="M28.7 9h-8.8c-.2 0-.3 0-.5.1h9.7c-.1-.1-.2-.1-.4-.1Z" fill="#fff"/><path d="M30.1 10.4c0 .8-.6 1.4-1.4 1.4h-8.8c-.8 0-1.4-.6-1.4-1.4 0-.6.4-1.1.9-1.3.1-.1.3-.1.5-.1h8.8c.2 0 .3 0 .5.1.5.2.9.7.9 1.3Z" fill="#111"/></svg>