<svg width="80" height="80" fill="none" xmlns="http://www.w3.org/2000/svg"><path d="M63.458 28.995a50.242 50.242 0 0 0-2.343-.738 39.22 39.22 0 0 0 .36-1.598c1.777-8.613.617-15.55-3.343-17.834-3.8-2.191-10.011.093-16.285 5.555a47.248 47.248 0 0 0-1.81 1.662c-.396-.38-.799-.751-1.21-1.115C32.256 9.09 25.664 6.63 21.707 8.921c-3.793 2.198-4.917 8.72-3.32 16.88.153.787.333 1.593.539 2.411-.907.256-1.806.538-2.697.847-7.707 2.688-12.63 6.899-12.63 11.268 0 4.514 5.284 9.038 13.313 11.783.635.216 1.292.422 1.97.616-.22.886-.413 1.753-.571 2.597-1.524 8.02-.335 14.39 3.45 16.571 3.91 2.256 10.47-.061 16.855-5.645a42.799 42.799 0 0 0 1.52-1.402 47.16 47.16 0 0 0 1.97 1.798c6.187 5.323 12.299 7.472 16.078 5.285 3.906-2.262 5.175-9.103 3.529-17.426-.132-.652-.279-1.3-.44-1.946.462-.135.913-.277 1.355-.422 8.348-2.764 13.777-7.237 13.777-11.809 0-4.385-5.08-8.622-12.946-11.332ZM43.89 16.725c5.374-4.678 10.398-6.525 12.689-5.204 2.436 1.405 3.383 7.076 1.852 14.51-.096.477-.206.957-.325 1.446-3.022-.696-6.302-1.214-9.737-1.537-2.001-2.848-4.073-5.439-6.154-7.681a45.005 45.005 0 0 1 1.675-1.534ZM25.096 44.058a90.41 90.41 0 0 0 4.35 7.508c-2.385-.268-4.634-.625-6.71-1.08a69.451 69.451 0 0 1 2.36-6.428Zm-.004-7.314a68.144 68.144 0 0 1-2.313-6.3c2.18-.481 4.383-.86 6.599-1.133a91.103 91.103 0 0 0-2.23 3.67 89.824 89.824 0 0 0-2.056 3.763Zm1.653 3.657a88.601 88.601 0 0 1 6.628-11.487 87.773 87.773 0 0 1 13.269 0 93.317 93.317 0 0 1 3.509 5.604 101.53 101.53 0 0 1 3.138 5.841 92.61 92.61 0 0 1-3.13 5.894 102.57 102.57 0 0 1-3.491 5.635c-2.22.157-4.443.234-6.668.232-2.265 0-4.47-.07-6.592-.206a88.303 88.303 0 0 1-6.663-11.513Zm26.109 7.405a97.231 97.231 0 0 0 2.114-3.857 66.7 66.7 0 0 1 2.445 6.402c-2.113.483-4.391.87-6.792 1.16.768-1.22 1.512-2.456 2.233-3.705Zm2.085-11.059a102.004 102.004 0 0 0-4.311-7.43c2.23.278 4.447.665 6.64 1.16a67.37 67.37 0 0 1-2.33 6.27ZM40.036 20.485a66.95 66.95 0 0 1 4.286 5.172 91.082 91.082 0 0 0-8.606-.003 68.707 68.707 0 0 1 4.32-5.169Zm-16.77-8.873c2.435-1.408 7.82.602 13.497 5.642.364.322.728.66 1.092 1.008-2.114 2.272-4.205 4.856-6.202 7.675-3.422.316-6.702.828-9.715 1.508-.19-.76-.358-1.508-.5-2.242-1.37-6.992-.46-12.267 1.827-13.591Zm-3.551 38.117a34.755 34.755 0 0 1-1.798-.564c-3.551-1.211-6.48-2.79-8.49-4.51-1.808-1.547-2.717-3.08-2.717-4.328 0-2.652 3.95-6.032 10.543-8.329.799-.28 1.637-.541 2.507-.79.912 2.965 2.104 6.061 3.547 9.197-1.46 3.18-2.67 6.328-3.592 9.324Zm16.854 14.178c-2.825 2.468-5.654 4.22-8.148 5.1-2.243.793-4.028.815-5.107.193-2.298-1.324-3.251-6.437-1.95-13.297.149-.783.326-1.592.532-2.417 2.984.66 6.283 1.134 9.81 1.421 2.015 2.836 4.126 5.44 6.252 7.72-.467.451-.928.877-1.39 1.28Zm3.554-3.516a70.111 70.111 0 0 1-4.382-5.242c1.395.055 2.816.084 4.26.084 1.485 0 2.95-.036 4.395-.1a66.36 66.36 0 0 1-4.273 5.258Zm18.885 4.328c-.432 2.336-1.305 3.895-2.384 4.52-2.294 1.328-7.202-.4-12.492-4.952a44.822 44.822 0 0 1-1.83-1.67c2.052-2.245 4.1-4.852 6.102-7.748 3.519-.313 6.844-.825 9.86-1.521.148.599.28 1.185.396 1.762.728 3.68.832 7.008.348 9.609Zm2.642-15.534c-.4.132-.808.258-1.224.383-.922-2.92-2.165-6.019-3.686-9.225 1.453-3.128 2.648-6.19 3.544-9.09.726.21 1.447.439 2.162.684 6.738 2.32 10.849 5.748 10.849 8.39 0 2.816-4.44 6.47-11.645 8.858Z" fill="#111"/><path d="M46.504 40.325a6.502 6.502 0 1 1-11.098-4.596 6.502 6.502 0 0 1 11.098 4.596Z" fill="#fff"/></svg>