<svg width="80" height="80" fill="none" xmlns="http://www.w3.org/2000/svg"><path d="M63.458 28.995a50.086 50.086 0 0 0-2.343-.738 39.22 39.22 0 0 0 .361-1.598c1.776-8.613.616-15.55-3.344-17.834-3.8-2.191-10.011.093-16.285 5.555a47.248 47.248 0 0 0-1.81 1.662c-.396-.38-.799-.751-1.209-1.115C32.255 9.09 25.663 6.63 21.706 8.921c-3.793 2.198-4.917 8.72-3.319 16.88.152.787.332 1.593.538 2.411-.907.256-1.806.538-2.697.847-7.707 2.688-12.63 6.899-12.63 11.268 0 4.514 5.284 9.038 13.313 11.783.635.216 1.292.422 1.97.616-.22.886-.413 1.753-.571 2.597-1.524 8.02-.335 14.39 3.45 16.571 3.91 2.256 10.47-.061 16.855-5.645a42.893 42.893 0 0 0 1.521-1.402 47.3 47.3 0 0 0 1.969 1.798c6.187 5.323 12.299 7.472 16.078 5.285 3.906-2.262 5.175-9.103 3.529-17.426a45.88 45.88 0 0 0-.439-1.946c.461-.135.912-.277 1.354-.422 8.348-2.764 13.777-7.237 13.777-11.809 0-4.385-5.08-8.622-12.946-11.332ZM43.89 16.725c5.374-4.678 10.398-6.525 12.689-5.204 2.436 1.405 3.383 7.076 1.852 14.51-.096.477-.206.957-.325 1.446-3.022-.696-6.302-1.214-9.737-1.537-2.001-2.848-4.073-5.439-6.154-7.681a44.832 44.832 0 0 1 1.675-1.534ZM25.096 44.058a90.47 90.47 0 0 0 4.35 7.508c-2.385-.268-4.634-.625-6.709-1.08a69.459 69.459 0 0 1 2.359-6.428Zm-.004-7.314a68.165 68.165 0 0 1-2.313-6.3c2.18-.481 4.383-.86 6.599-1.133a91.033 91.033 0 0 0-2.23 3.67 89.76 89.76 0 0 0-2.056 3.763Zm1.653 3.657a88.576 88.576 0 0 1 6.628-11.487 87.773 87.773 0 0 1 13.269 0 93.184 93.184 0 0 1 3.509 5.604c1.11 1.912 2.156 3.86 3.138 5.841a92.586 92.586 0 0 1-3.129 5.894 102.548 102.548 0 0 1-3.492 5.635c-2.22.157-4.443.234-6.668.232-2.265 0-4.47-.07-6.592-.206a88.317 88.317 0 0 1-6.663-11.513Zm26.109 7.405a97.244 97.244 0 0 0 2.114-3.857 66.673 66.673 0 0 1 2.445 6.402c-2.113.483-4.391.87-6.792 1.16.768-1.22 1.513-2.456 2.233-3.705Zm2.085-11.059a101.983 101.983 0 0 0-4.311-7.43c2.231.278 4.447.665 6.64 1.16a67.351 67.351 0 0 1-2.329 6.27ZM40.036 20.485a66.931 66.931 0 0 1 4.286 5.172 91.082 91.082 0 0 0-8.606-.003 68.71 68.71 0 0 1 4.32-5.169Zm-16.77-8.873c2.435-1.408 7.82.602 13.497 5.642.364.322.728.66 1.092 1.008-2.114 2.272-4.205 4.856-6.202 7.675-3.422.316-6.702.828-9.715 1.508-.19-.76-.358-1.508-.5-2.242-1.369-6.992-.46-12.267 1.827-13.591h.001Zm-3.551 38.117a34.883 34.883 0 0 1-1.798-.564c-3.551-1.211-6.48-2.79-8.49-4.51-1.808-1.547-2.717-3.08-2.717-4.328 0-2.652 3.95-6.032 10.543-8.329.799-.28 1.637-.541 2.507-.79.912 2.965 2.104 6.061 3.547 9.197-1.46 3.18-2.67 6.328-3.592 9.324Zm16.854 14.178c-2.825 2.468-5.654 4.22-8.148 5.1-2.243.793-4.028.815-5.107.193-2.298-1.324-3.251-6.437-1.95-13.297.149-.783.326-1.592.532-2.417 2.984.66 6.283 1.134 9.811 1.421 2.014 2.836 4.125 5.44 6.251 7.72-.467.451-.928.877-1.389 1.28Zm3.554-3.516a70.16 70.16 0 0 1-4.382-5.242c1.395.055 2.816.084 4.26.084 1.485 0 2.951-.036 4.395-.1a66.333 66.333 0 0 1-4.273 5.258Zm18.885 4.328c-.432 2.336-1.305 3.895-2.384 4.52-2.294 1.328-7.202-.4-12.492-4.952a44.888 44.888 0 0 1-1.83-1.67c2.052-2.245 4.101-4.852 6.102-7.748 3.519-.313 6.844-.825 9.86-1.521.148.599.28 1.185.396 1.762.728 3.68.832 7.008.348 9.609Zm2.642-15.534c-.4.132-.808.258-1.224.383-.922-2.92-2.165-6.019-3.686-9.225 1.453-3.128 2.648-6.19 3.544-9.09.726.21 1.447.439 2.162.684 6.738 2.32 10.849 5.748 10.849 8.39 0 2.816-4.44 6.47-11.645 8.858Z" fill="#111"/><path d="M46.504 40.325a6.502 6.502 0 1 1-11.098-4.596 6.5 6.5 0 0 1 11.098 4.596Z" fill="#FD0"/></svg>