<svg width="80" height="80" fill="none" xmlns="http://www.w3.org/2000/svg"><g clip-path="url('#clip0_181_215')"><path d="M13 63.1h54.4v2.5c0 2.5-2 4.5-4.5 4.5H4.5c-2.5 0-4.5-2-4.5-4.5V20.5C0 18 2 16 4.5 16H7v41.1c.1 3.3 2.7 6 6 6Z" fill="#FFDB00"/><path d="M71.5 9H13.1c-1.6 0-3 1.3-3 3v8.8h64.4V12c-.1-1.7-1.4-3-3-3Zm-54.9 9.5c-1.6 0-2.9-1-3.3-2.5-.1-.3-.2-.6-.2-1 0-1.9 1.6-3.4 3.5-3.4S20 13.1 20 15c0 .4-.1.7-.1 1-.4 1.4-1.8 2.5-3.3 2.5Zm9.3 0c-1.5 0-2.9-1-3.3-2.5-.1-.3-.2-.6-.2-1 0-1.9 1.6-3.4 3.4-3.4 1.9 0 3.5 1.5 3.5 3.4 0 .4-.1.7-.2 1-.3 1.4-1.6 2.5-3.2 2.5Zm9.3 0c-1.6 0-2.9-1-3.3-2.5-.1-.3-.1-.6-.1-1 0-1.9 1.5-3.4 3.4-3.4s3.4 1.5 3.4 3.4c0 .4 0 .7-.1 1-.4 1.4-1.7 2.5-3.3 2.5Zm39.2 5.3v33.4c0 1.6-1.3 3-3 3H13c-1.6 0-3-1.3-3-3V23.8h64.4Z" fill="#111"/><path d="M18 15c0 .4-.1.7-.4 1-.3.3-.6.5-1 .5s-.8-.2-1.1-.5c-.2-.3-.4-.6-.4-1 0-.8.7-1.4 1.5-1.4s1.4.6 1.4 1.4Zm9.4 0c0 .4-.2.7-.4 1-.3.3-.6.5-1.1.5-.4 0-.8-.2-1-.5-.2-.3-.4-.6-.4-1 0-.8.7-1.4 1.4-1.4.8 0 1.5.6 1.5 1.4Zm9.3 0c0 .4-.1.7-.4 1-.3.3-.6.5-1.1.5-.4 0-.8-.2-1.1-.5-.2-.3-.4-.6-.4-1 0-.8.6-1.4 1.4-1.4.8 0 1.6.6 1.6 1.4Z" fill="#111"/></g><defs><clipPath id="clip0_181_215"><path fill="#fff" d="M0 0h80v80H0z"/></clipPath></defs></svg>