<svg width="80" height="80" viewBox="0 0 80 80" fill="none" xmlns="http://www.w3.org/2000/svg">
<path d="M47 63.1V65.7C47 68.1 45 70.1 42.6 70.1H4.4C2 70.1 0 68.1 0 65.7V27.5C0 25.1 2 23.1 4.4 23.1H7V57.2C7 60.5 9.7 63.1 12.9 63.1H47Z" fill="#FFDB00"/>
<path d="M54 42.1V57.2C54 58.8 52.7 60.1 51.1 60.1H12.9C11.3 60.1 10 58.8 10 57.2V19C10 17.4 11.3 16.1 12.9 16.1H30.5C29.4 18.2 28.7 20.6 28.5 23.1C28.5 23.6 28.4 24.2 28.4 24.7C28.4 35 36.7 43.3 46.9 43.4H47.1C49.6 43.4 51.9 43 54 42.1Z" fill="black"/>
<path d="M62.8 24.7C62.8 29.6 60.5 34 56.9 36.9C56.4 37.3 55.9 37.7 55.4 38C54.9 38.3 54.4 38.6 53.9 38.8C51.8 39.8 49.5 40.4 47.1 40.4H47C38.4 40.3 31.5 33.3 31.5 24.7C31.5 24.2 31.5 23.6 31.6 23.1C31.9 20.5 32.7 18.1 34.1 16.1C34.5 15.6 34.8 15.1 35.2 14.6C35.6 14.1 36.1 13.6 36.6 13.1C39.4 10.6 43.1 9 47.2 9C55.8 9 62.8 16.1 62.8 24.7Z" fill="black"/>
</svg>
