<svg width="80" height="80" viewBox="0 0 80 80" fill="none" xmlns="http://www.w3.org/2000/svg">
<g clip-path="url(#clip0_168_768)">
<path d="M72.1506 19.0187C69.9035 16.3297 67.9685 13.5987 67.5731 13.0315C67.5315 12.9895 67.4691 12.9895 67.4275 13.0315C67.0321 13.5987 65.0971 16.3297 62.85 19.0187C43.5621 43.8286 65.8878 60.5717 65.8878 60.5717L66.075 60.6977C66.2415 63.2817 66.6576 67 66.6576 67H67.4899H68.3222C68.3222 67 68.7383 63.3027 68.9048 60.6977L69.092 60.5508C69.1128 60.5508 91.4385 43.8286 72.1506 19.0187ZM67.4899 60.1935C67.4899 60.1935 66.4912 59.3322 66.2207 58.891V58.8491L67.4275 31.8333C67.4275 31.7493 67.5523 31.7493 67.5523 31.8333L68.7591 58.8491V58.891C68.4886 59.3322 67.4899 60.1935 67.4899 60.1935Z" fill="#111111"/>
<mask id="mask0_168_768" style="mask-type:luminance" maskUnits="userSpaceOnUse" x="0" y="0" width="44" height="50">
<path d="M0 0H43.9024V50H0V0Z" fill="white"/>
</mask>
<g mask="url(#mask0_168_768)">
<path d="M21.9513 49.9039C21.2684 49.9039 20.632 49.721 20.042 49.3986L13.997 45.7759C13.0877 45.2706 13.5428 45.0876 13.8149 44.9954C15.0428 44.5823 15.2692 44.4908 16.542 43.7568C16.6792 43.6654 16.8606 43.7119 16.9963 43.8033L21.632 46.6006C21.8134 46.6928 22.0413 46.6928 22.1769 46.6006L40.3111 36.0099C40.4925 35.9184 40.5839 35.7347 40.5839 35.5046V14.3712C40.5839 14.141 40.4925 13.9573 40.3111 13.8658L22.1785 3.32087C21.997 3.2294 21.7692 3.2294 21.6335 3.32087L3.5001 13.8674C3.31793 13.9588 3.22723 14.1898 3.22723 14.3727V35.5107C3.22723 35.6936 3.31793 35.9238 3.49934 36.0152L8.4536 38.9047C11.1365 40.2805 12.8172 38.6745 12.8172 37.0709V16.205C12.8172 15.9306 13.0451 15.6547 13.3621 15.6547H15.6807C15.9536 15.6547 16.2265 15.8849 16.2265 16.205V37.0663C16.2265 40.6898 14.2714 42.798 10.8637 42.798C9.81793 42.798 8.99934 42.798 6.68303 41.6517L1.91016 38.9001C1.32728 38.5577 0.844199 38.0687 0.508966 37.4817C0.173734 36.8947 -0.00196877 36.2301 -0.000664174 35.5541V14.4184C-0.000664174 13.0427 0.72647 11.7584 1.90863 11.0701L20.042 0.478641C21.1792 -0.163128 22.7242 -0.163128 23.8599 0.478641L41.9932 11.0701C42.5755 11.4134 43.0579 11.9029 43.3927 12.4901C43.7275 13.0773 43.903 13.7417 43.9018 14.4177V35.5549C43.903 36.2308 43.7275 36.8953 43.3927 37.4825C43.0579 38.0697 42.5755 38.5592 41.9932 38.9024L23.8599 49.4939C23.2597 49.7645 22.6096 49.9043 21.9513 49.9039ZM27.5413 35.3712C19.5878 35.3712 17.9513 31.7035 17.9513 28.5853C17.9513 28.311 18.18 28.0358 18.497 28.0358H20.8599C21.1327 28.0358 21.3606 28.2187 21.3606 28.4939C21.7242 30.9253 22.7707 32.1166 27.5878 32.1166C31.4048 32.1166 33.0413 31.2446 33.0413 29.1821C33.0413 27.9908 32.587 27.1189 26.6327 26.5236C21.6785 26.0183 18.5878 24.9177 18.5878 20.9299C18.5878 17.2157 21.6777 15.0152 26.8591 15.0152C32.6762 15.0152 35.5405 17.032 35.9033 21.4329C35.8997 21.5814 35.852 21.7255 35.7661 21.8468C35.6754 21.9382 35.5382 22.0297 35.4025 22.0297H33.0397C32.8111 22.0297 32.5855 21.8468 32.539 21.6166C31.9932 19.0937 30.5839 18.269 26.8576 18.269C22.6762 18.269 22.1754 19.7363 22.1754 20.8369C22.1754 22.1669 22.7669 22.5785 28.4025 23.3125C33.9932 24.0457 36.6289 25.1014 36.6289 29.0442C36.5847 33.077 33.3126 35.3712 27.5413 35.3712Z" fill="#111111"/>
</g>
<path d="M49.8374 56.6H49.3274C48.6968 56.6 48.1028 56.894 47.7194 57.3944L42.4994 64.2206L37.2794 57.3944C36.8972 56.894 36.3026 56.6 35.6726 56.6H35.1626L41.7452 65.2076L35.0216 74H35.5316C36.1622 74 36.7562 73.706 37.139 73.2056L42.5 66.1952L47.861 73.2056C48.2438 73.706 48.8378 74 49.4684 74H49.9784L43.2548 65.2076L49.8374 56.6ZM32.7734 70.5452C31.241 72.8738 28.2242 74.0672 25.34 73.0148C22.8026 72.089 21.2 69.5666 21.2 66.8654V66.2H28.4H35V63.7196C35 59.8166 32.1092 56.3996 28.223 56.0342C23.7638 55.6148 20 59.126 20 63.5V66.8438C20 70.0664 21.929 73.0622 24.9614 74.1536C28.9232 75.5792 33.0902 73.4516 34.499 69.8H34.1162C33.5696 69.8 33.0734 70.0886 32.7734 70.5452ZM21.2 63.5C21.2 60.026 24.026 57.2 27.5 57.2C30.974 57.2 33.8 60.026 33.8 63.5V65H21.2V63.5Z" fill="black"/>
</g>
<defs>
<clipPath id="clip0_168_768">
<rect width="80" height="80" fill="white"/>
</clipPath>
</defs>
</svg>
