<svg width="80" height="80" viewBox="0 0 80 80" fill="none" xmlns="http://www.w3.org/2000/svg">
<path d="M31.6 63.2V64.2C31.6 67.5 28.9 70.2 25.6 70.2H6C2.7 70.2 0 67.5 0 64.2V22.1C0 18.8 2.7 16.1 6 16.1H7V55.7C7 59.8 10.4 63.2 14.5 63.2H31.6Z" fill="white"/>
<path d="M30.1 10.4C30.1 11.2 29.5 11.8 28.7 11.8H19.9C19.1 11.8 18.5 11.2 18.5 10.4C18.5 9.8 18.9 9.3 19.4 9.1C19.5 9 19.7 9 19.9 9H28.7C28.9 9 29 9 29.2 9.1C29.7 9.3 30.1 9.8 30.1 10.4Z" fill="#111111"/>
<path d="M38.6 13.6V55.7C38.6 58.2 36.6 60.2 34.1 60.2H14.5C12 60.2 10 58.2 10 55.7V13.6C10 11.1 12 9.09998 14.5 9.09998H16.8C16.6 9.49998 16.5 9.89998 16.5 10.4C16.5 12.3 18 13.8 19.9 13.8H28.7C30.6 13.8 32.1 12.3 32.1 10.4C32.1 9.89998 32 9.49998 31.8 9.09998H34.1C36.6 9.09998 38.6 11.1 38.6 13.6Z" fill="#111111"/>
<path d="M28.6999 9H19.8999C19.6999 9 19.5999 9 19.3999 9.1H29.0999C28.9999 9 28.8999 9 28.6999 9Z" fill="white"/>
<path d="M30.1 10.4C30.1 11.2 29.5 11.8 28.7 11.8H19.9C19.1 11.8 18.5 11.2 18.5 10.4C18.5 9.8 18.9 9.3 19.4 9.1C19.5 9 19.7 9 19.9 9H28.7C28.9 9 29 9 29.2 9.1C29.7 9.3 30.1 9.8 30.1 10.4Z" fill="#111111"/>
</svg>
