<svg width="80" height="80" viewBox="0 0 80 80" fill="none" xmlns="http://www.w3.org/2000/svg">
<path d="M47.3829 8.91656C44.0572 4.9329 41.1933 0.886986 40.6082 0.0466834C40.5466 -0.0155611 40.4542 -0.0155611 40.3927 0.0466834C39.8076 0.886986 36.9437 4.9329 33.6179 8.91656C5.07191 45.6719 38.1139 70.4766 38.1139 70.4766L38.391 70.6633C38.6374 74.4915 39.2533 80 39.2533 80H40.485H41.7168C41.7168 80 42.3327 74.5225 42.579 70.6633L42.8561 70.4456C42.887 70.4456 75.9289 45.6719 47.3829 8.91656ZM40.485 69.9163C40.485 69.9163 39.0069 68.6403 38.6066 67.9867V67.9247L40.3927 27.9012C40.3927 27.7767 40.5774 27.7767 40.5774 27.9012L42.3635 67.9247V67.9867C41.9631 68.6403 40.485 69.9163 40.485 69.9163Z" fill="#111111"/>
</svg>
