<svg width="80" height="80" viewBox="0 0 80 80" fill="none" xmlns="http://www.w3.org/2000/svg">
<mask id="mask0_6_244" style="mask-type:luminance" maskUnits="userSpaceOnUse" x="11" y="8" width="58" height="66">
<path d="M11.2 8H68.8V73.6H11.2V8Z" fill="white"/>
</mask>
<g mask="url(#mask0_6_244)">
<path d="M40 73.474C39.104 73.474 38.269 73.234 37.495 72.811L29.564 68.058C28.371 67.395 28.968 67.155 29.325 67.034C30.936 66.492 31.233 66.372 32.903 65.409C33.083 65.289 33.321 65.35 33.499 65.47L39.581 69.14C39.819 69.261 40.118 69.261 40.296 69.14L64.088 55.245C64.326 55.125 64.446 54.884 64.446 54.582V26.855C64.446 26.553 64.326 26.312 64.088 26.192L40.298 12.357C40.06 12.237 39.761 12.237 39.583 12.357L15.792 26.194C15.553 26.314 15.434 26.617 15.434 26.857V54.59C15.434 54.83 15.553 55.132 15.791 55.252L22.291 59.043C25.811 60.848 28.016 58.741 28.016 56.637V29.261C28.016 28.901 28.315 28.539 28.731 28.539H31.773C32.131 28.539 32.489 28.841 32.489 29.261V56.631C32.489 61.385 29.924 64.151 25.453 64.151C24.081 64.151 23.007 64.151 19.968 62.647L13.706 59.037C12.9412 58.5878 12.3074 57.9462 11.8676 57.176C11.4278 56.4058 11.1973 55.5339 11.199 54.647V26.917C11.199 25.112 12.153 23.427 13.704 22.524L37.495 8.62802C38.987 7.78602 41.014 7.78602 42.504 8.62802L66.295 22.524C67.0589 22.9744 67.6919 23.6166 68.1311 24.387C68.5703 25.1574 68.8006 26.0292 68.799 26.916V54.648C68.8006 55.5348 68.5703 56.4066 68.1311 57.177C67.6919 57.9474 67.0589 58.5896 66.295 59.04L42.504 72.936C41.7166 73.2911 40.8637 73.4745 40 73.474ZM47.334 54.407C36.899 54.407 34.752 49.595 34.752 45.504C34.752 45.144 35.052 44.783 35.468 44.783H38.568C38.926 44.783 39.225 45.023 39.225 45.384C39.702 48.574 41.075 50.137 47.395 50.137C52.403 50.137 54.55 48.993 54.55 46.287C54.55 44.724 53.954 43.58 46.142 42.799C39.642 42.136 35.587 40.692 35.587 35.46C35.587 30.587 39.641 27.7 46.439 27.7C54.071 27.7 57.829 30.346 58.305 36.12C58.3003 36.3149 58.2377 36.5039 58.125 36.663C58.006 36.783 57.826 36.903 57.648 36.903H54.548C54.248 36.903 53.952 36.663 53.891 36.361C53.175 33.051 51.326 31.969 46.437 31.969C40.951 31.969 40.294 33.894 40.294 35.338C40.294 37.083 41.07 37.623 48.464 38.586C55.799 39.548 59.257 40.933 59.257 46.106C59.199 51.397 54.906 54.407 47.334 54.407Z" fill="#111111"/>
</g>
</svg>
