<svg width="80" height="80" viewBox="0 0 80 80" fill="none" xmlns="http://www.w3.org/2000/svg">
<path d="M63.4579 28.995C62.683 28.7299 61.9018 28.4839 61.1149 28.257C61.2479 27.716 61.3699 27.184 61.4759 26.659C63.2519 18.046 62.0919 11.109 58.1319 8.82504C54.3319 6.63404 48.1209 8.91804 41.8469 14.38C41.2293 14.9182 40.6257 15.4724 40.0369 16.042C39.6412 15.6625 39.2381 15.2908 38.8279 14.927C32.2549 9.09004 25.6629 6.63004 21.7059 8.92103C17.9129 11.119 16.7889 17.641 18.3869 25.801C18.5389 26.588 18.7189 27.394 18.9249 28.212C18.0178 28.4681 17.1185 28.7505 16.2279 29.059C8.5209 31.747 3.5979 35.958 3.5979 40.327C3.5979 44.841 8.8819 49.365 16.9109 52.11C17.5459 52.326 18.2029 52.532 18.8809 52.726C18.6609 53.612 18.4679 54.479 18.3099 55.323C16.7859 63.343 17.9749 69.713 21.7599 71.894C25.6699 74.15 32.2299 71.833 38.6149 66.249C39.1331 65.794 39.6403 65.3265 40.1359 64.847C40.7752 65.4648 41.4318 66.0644 42.1049 66.645C48.2919 71.968 54.4039 74.117 58.1829 71.93C62.0889 69.668 63.3579 62.827 61.7119 54.504C61.5797 53.8523 61.4333 53.2034 61.2729 52.558C61.7339 52.423 62.1849 52.281 62.6269 52.136C70.9749 49.372 76.4039 44.899 76.4039 40.327C76.4039 35.942 71.3239 31.705 63.4579 28.995ZM43.8899 16.725C49.2639 12.047 54.2879 10.2 56.5789 11.521C59.0149 12.926 59.9619 18.597 58.4309 26.031C58.3349 26.508 58.2249 26.988 58.1059 27.477C55.0839 26.781 51.8039 26.263 48.3689 25.94C46.3679 23.092 44.2959 20.501 42.2149 18.259C42.7602 17.7337 43.3187 17.2222 43.8899 16.725ZM25.0959 44.058C26.4249 46.6289 27.8766 49.1344 29.4459 51.566C27.0609 51.298 24.8119 50.941 22.7369 50.486C23.4171 48.3059 24.2043 46.1606 25.0959 44.058ZM25.0919 36.744C24.2179 34.6833 23.446 32.5808 22.7789 30.444C24.9596 29.9629 27.1617 29.5849 29.3779 29.311C28.6058 30.5167 27.8623 31.7403 27.1479 32.981C26.4327 34.2188 25.7472 35.4735 25.0919 36.744ZM26.7449 40.401C27.7036 38.4074 28.7367 36.4503 29.8419 34.534C30.9463 32.6161 32.1242 30.7414 33.3729 28.914C37.7896 28.5792 42.2252 28.5792 46.6419 28.914C47.8774 30.74 49.0478 32.6091 50.1509 34.518C51.2602 36.4303 52.3068 38.3784 53.2889 40.359C52.317 42.3606 51.2734 44.3266 50.1599 46.253C49.0569 48.1685 47.8923 50.0478 46.6679 51.888C44.4487 52.0447 42.2246 52.122 39.9999 52.12C37.7349 52.12 35.5299 52.05 33.4079 51.914C30.9006 48.249 28.6733 44.4011 26.7449 40.401ZM52.8539 47.806C53.5875 46.5365 54.2924 45.2505 54.9679 43.949C55.8921 46.0397 56.7081 48.1765 57.4129 50.351C55.2999 50.834 53.0219 51.221 50.6209 51.511C51.3891 50.2906 52.1335 49.0553 52.8539 47.806ZM54.9389 36.747C53.6069 34.2109 52.1686 31.7321 50.6279 29.317C52.8589 29.5946 55.0749 29.9818 57.2679 30.477C56.5955 32.6043 55.8189 34.6969 54.9389 36.747ZM40.0359 20.485C41.5502 22.1362 42.9807 23.8624 44.3219 25.657C41.4549 25.5204 38.583 25.5194 35.7159 25.654C37.0705 23.8614 38.5122 22.1364 40.0359 20.485ZM23.2659 11.612C25.7009 10.204 31.0859 12.214 36.7629 17.254C37.1269 17.576 37.4909 17.914 37.8549 18.262C35.7409 20.534 33.6499 23.118 31.6529 25.937C28.2309 26.253 24.9509 26.765 21.9379 27.445C21.7479 26.685 21.5799 25.937 21.4379 25.203C20.0689 18.211 20.9779 12.936 23.2649 11.612H23.2659ZM19.7149 49.729C19.1106 49.5573 18.511 49.3692 17.9169 49.165C14.3659 47.954 11.4369 46.375 9.4269 44.655C7.6189 43.108 6.7099 41.575 6.7099 40.327C6.7099 37.675 10.6599 34.295 17.2529 31.998C18.0519 31.718 18.8899 31.457 19.7599 31.208C20.6719 34.173 21.8639 37.269 23.3069 40.405C21.8469 43.585 20.6369 46.733 19.7149 49.729ZM36.5689 63.907C33.7439 66.375 30.9149 68.127 28.4209 69.007C26.1779 69.8 24.3929 69.822 23.3139 69.2C21.0159 67.876 20.0629 62.763 21.3639 55.903C21.5129 55.12 21.6899 54.311 21.8959 53.486C24.8799 54.146 28.1789 54.62 31.7069 54.907C33.7209 57.743 35.8319 60.347 37.9579 62.627C37.4909 63.078 37.0299 63.504 36.5689 63.907ZM40.1229 60.391C38.5779 58.7159 37.1155 56.9665 35.7409 55.149C37.1359 55.204 38.5569 55.233 40.0009 55.233C41.4859 55.233 42.9519 55.197 44.3959 55.133C43.062 56.9573 41.6358 58.7123 40.1229 60.391ZM59.0079 64.719C58.5759 67.055 57.7029 68.614 56.6239 69.239C54.3299 70.567 49.4219 68.839 44.1319 64.287C43.5066 63.7473 42.8964 63.1904 42.3019 62.617C44.3539 60.372 46.4029 57.765 48.4039 54.869C51.9229 54.556 55.2479 54.044 58.2639 53.348C58.4119 53.947 58.5439 54.533 58.6599 55.11C59.3879 58.79 59.4919 62.118 59.0079 64.719ZM61.6499 49.185C61.2499 49.317 60.8419 49.443 60.4259 49.568C59.5039 46.648 58.2609 43.549 56.7399 40.343C58.1929 37.215 59.3879 34.153 60.2839 31.253C61.0099 31.4638 61.7308 31.6919 62.4459 31.937C69.1839 34.257 73.2949 37.685 73.2949 40.327C73.2949 43.143 68.8549 46.797 61.6499 49.185Z" fill="#111111"/>
<path d="M46.504 40.3251C46.504 42.0495 45.819 43.7033 44.5996 44.9227C43.3802 46.142 41.7264 46.827 40.002 46.827C38.2776 46.827 36.6238 46.142 35.4044 44.9227C34.185 43.7033 33.5 42.0495 33.5 40.3251C33.5008 38.6011 34.1862 36.9481 35.4055 35.7294C36.6247 34.5107 38.2781 33.826 40.002 33.826C43.592 33.826 46.504 36.7351 46.504 40.3251Z" fill="white"/>
</svg>
