<svg width="80" height="80" viewBox="0 0 80 80" fill="none" xmlns="http://www.w3.org/2000/svg">
<path d="M63.458 28.995C62.6832 28.7299 61.9019 28.4838 61.115 28.257C61.248 27.716 61.37 27.184 61.476 26.659C63.252 18.046 62.092 11.109 58.132 8.82497C54.332 6.63397 48.121 8.91797 41.847 14.38C41.2294 14.9182 40.6258 15.4724 40.037 16.042C39.6413 15.6625 39.2382 15.2907 38.828 14.927C32.255 9.08997 25.663 6.62997 21.706 8.92097C17.913 11.119 16.789 17.641 18.387 25.801C18.539 26.588 18.719 27.394 18.925 28.212C18.018 28.468 17.1186 28.7504 16.228 29.059C8.52102 31.747 3.59802 35.958 3.59802 40.327C3.59802 44.841 8.88202 49.365 16.911 52.11C17.546 52.326 18.203 52.532 18.881 52.726C18.661 53.612 18.468 54.479 18.31 55.323C16.786 63.343 17.975 69.713 21.76 71.894C25.67 74.15 32.23 71.833 38.615 66.249C39.1332 65.7939 39.6404 65.3265 40.136 64.847C40.7753 65.4647 41.4319 66.0643 42.105 66.645C48.292 71.968 54.404 74.117 58.183 71.93C62.089 69.668 63.358 62.827 61.712 54.504C61.5798 53.8522 61.4334 53.2034 61.273 52.558C61.734 52.423 62.185 52.281 62.627 52.136C70.975 49.372 76.404 44.899 76.404 40.327C76.404 35.942 71.324 31.705 63.458 28.995ZM43.89 16.725C49.264 12.047 54.288 10.2 56.579 11.521C59.015 12.926 59.962 18.597 58.431 26.031C58.335 26.508 58.225 26.988 58.106 27.477C55.084 26.781 51.804 26.263 48.369 25.94C46.368 23.092 44.296 20.501 42.215 18.259C42.7603 17.7336 43.3188 17.2221 43.89 16.725ZM25.096 44.058C26.4251 46.6288 27.8767 49.1343 29.446 51.566C27.061 51.298 24.812 50.941 22.737 50.486C23.4172 48.3058 24.2045 46.1605 25.096 44.058ZM25.092 36.744C24.218 34.6832 23.4461 32.5807 22.779 30.444C24.9597 29.9629 27.1618 29.5848 29.378 29.311C28.6059 30.5166 27.8624 31.7403 27.148 32.981C26.4328 34.2188 25.7473 35.4734 25.092 36.744ZM26.745 40.401C27.7037 38.4073 28.7368 36.4503 29.842 34.534C30.9465 32.616 32.1243 30.7413 33.373 28.914C37.7897 28.5792 42.2254 28.5792 46.642 28.914C47.8776 30.7399 49.048 32.6091 50.151 34.518C51.2603 36.4303 52.3069 38.3783 53.289 40.359C52.3172 42.3606 51.2735 44.3265 50.16 46.253C49.0571 48.1684 47.8924 50.0478 46.668 51.888C44.4488 52.0446 42.2247 52.122 40 52.12C37.735 52.12 35.53 52.05 33.408 51.914C30.9007 48.2489 28.6734 44.401 26.745 40.401ZM52.854 47.806C53.5877 46.5364 54.2925 45.2504 54.968 43.949C55.8922 46.0397 56.7083 48.1765 57.413 50.351C55.3 50.834 53.022 51.221 50.621 51.511C51.3892 50.2905 52.1337 49.0553 52.854 47.806ZM54.939 36.747C53.607 34.2109 52.1687 31.732 50.628 29.317C52.859 29.5946 55.075 29.9817 57.268 30.477C56.5957 32.6043 55.819 34.6968 54.939 36.747ZM40.036 20.485C41.5503 22.1362 42.9808 23.8623 44.322 25.657C41.455 25.5204 38.5831 25.5194 35.716 25.654C37.0706 23.8614 38.5124 22.1363 40.036 20.485ZM23.266 11.612C25.701 10.204 31.086 12.214 36.763 17.254C37.127 17.576 37.491 17.914 37.855 18.262C35.741 20.534 33.65 23.118 31.653 25.937C28.231 26.253 24.951 26.765 21.938 27.445C21.748 26.685 21.58 25.937 21.438 25.203C20.069 18.211 20.978 12.936 23.265 11.612H23.266ZM19.715 49.729C19.1107 49.5572 18.5112 49.3692 17.917 49.165C14.366 47.954 11.437 46.375 9.42702 44.655C7.61902 43.108 6.71002 41.575 6.71002 40.327C6.71002 37.675 10.66 34.295 17.253 31.998C18.052 31.718 18.89 31.457 19.76 31.208C20.672 34.173 21.864 37.269 23.307 40.405C21.847 43.585 20.637 46.733 19.715 49.729ZM36.569 63.907C33.744 66.375 30.915 68.127 28.421 69.007C26.178 69.8 24.393 69.822 23.314 69.2C21.016 67.876 20.063 62.763 21.364 55.903C21.513 55.12 21.69 54.311 21.896 53.486C24.88 54.146 28.179 54.62 31.707 54.907C33.721 57.743 35.832 60.347 37.958 62.627C37.491 63.078 37.03 63.504 36.569 63.907ZM40.123 60.391C38.5781 58.7159 37.1157 56.9665 35.741 55.149C37.136 55.204 38.557 55.233 40.001 55.233C41.486 55.233 42.952 55.197 44.396 55.133C43.0622 56.9573 41.636 58.7122 40.123 60.391ZM59.008 64.719C58.576 67.055 57.703 68.614 56.624 69.239C54.33 70.567 49.422 68.839 44.132 64.287C43.5068 63.7473 42.8965 63.1904 42.302 62.617C44.354 60.372 46.403 57.765 48.404 54.869C51.923 54.556 55.248 54.044 58.264 53.348C58.412 53.947 58.544 54.533 58.66 55.11C59.388 58.79 59.492 62.118 59.008 64.719ZM61.65 49.185C61.25 49.317 60.842 49.443 60.426 49.568C59.504 46.648 58.261 43.549 56.74 40.343C58.193 37.215 59.388 34.153 60.284 31.253C61.01 31.4637 61.7309 31.6918 62.446 31.937C69.184 34.257 73.295 37.685 73.295 40.327C73.295 43.143 68.855 46.797 61.65 49.185Z" fill="#111111"/>
<path d="M46.504 40.325C46.504 42.0494 45.819 43.7032 44.5996 44.9226C43.3802 46.142 41.7264 46.827 40.002 46.827C38.2776 46.827 36.6238 46.142 35.4044 44.9226C34.185 43.7032 33.5 42.0494 33.5 40.325C33.5008 38.6011 34.1862 36.948 35.4055 35.7293C36.6247 34.5106 38.2781 33.826 40.002 33.826C43.592 33.826 46.504 36.735 46.504 40.325Z" fill="#FFDD00"/>
</svg>
