<svg width="80" height="80" viewBox="0 0 80 80" fill="none" xmlns="http://www.w3.org/2000/svg">
<g clip-path="url(#clip0_66_153)">
<path d="M13 63.1H67.4V65.6C67.4 68.1 65.4 70.1 62.9 70.1H4.5C2 70.1 0 68.1 0 65.6V20.5C0 18 2 16 4.5 16H7V57.1C7.1 60.4 9.7 63.1 13 63.1Z" fill="#FFDB00"/>
<path d="M71.5 9H13.1C11.5 9 10.1 10.3 10.1 12V20.8H74.5V12C74.4 10.3 73.1 9 71.5 9ZM16.6 18.5C15 18.5 13.7 17.5 13.3 16C13.2 15.7 13.1 15.4 13.1 15C13.1 13.1 14.7 11.6 16.6 11.6C18.5 11.6 20 13.1 20 15C20 15.4 19.9 15.7 19.9 16C19.5 17.4 18.1 18.5 16.6 18.5ZM25.9 18.5C24.4 18.5 23 17.5 22.6 16C22.5 15.7 22.4 15.4 22.4 15C22.4 13.1 24 11.6 25.8 11.6C27.7 11.6 29.3 13.1 29.3 15C29.3 15.4 29.2 15.7 29.1 16C28.8 17.4 27.5 18.5 25.9 18.5ZM35.2 18.5C33.6 18.5 32.3 17.5 31.9 16C31.8 15.7 31.8 15.4 31.8 15C31.8 13.1 33.3 11.6 35.2 11.6C37.1 11.6 38.6 13.1 38.6 15C38.6 15.4 38.6 15.7 38.5 16C38.1 17.4 36.8 18.5 35.2 18.5ZM74.4 23.8V57.2C74.4 58.8 73.1 60.2 71.4 60.2H13C11.4 60.2 10 58.9 10 57.2V23.8H74.4Z" fill="black"/>
<path d="M17.9999 15C17.9999 15.4 17.8999 15.7 17.5999 16C17.2999 16.3 16.9999 16.5 16.5999 16.5C16.1999 16.5 15.7999 16.3 15.4999 16C15.2999 15.7 15.0999 15.4 15.0999 15C15.0999 14.2 15.7999 13.6 16.5999 13.6C17.3999 13.6 17.9999 14.2 17.9999 15ZM27.3999 15C27.3999 15.4 27.1999 15.7 26.9999 16C26.6999 16.3 26.3999 16.5 25.8999 16.5C25.4999 16.5 25.0999 16.3 24.8999 16C24.6999 15.7 24.4999 15.4 24.4999 15C24.4999 14.2 25.1999 13.6 25.8999 13.6C26.6999 13.6 27.3999 14.2 27.3999 15ZM36.6999 15C36.6999 15.4 36.5999 15.7 36.2999 16C35.9999 16.3 35.6999 16.5 35.1999 16.5C34.7999 16.5 34.3999 16.3 34.0999 16C33.8999 15.7 33.6999 15.4 33.6999 15C33.6999 14.2 34.2999 13.6 35.0999 13.6C35.8999 13.6 36.6999 14.2 36.6999 15Z" fill="black"/>
</g>
<defs>
<clipPath id="clip0_66_153">
<rect width="80" height="80" fill="white"/>
</clipPath>
</defs>
</svg>
